<svg width="87" height="79" viewBox="0 0 87 79" fill="none" xmlns="http://www.w3.org/2000/svg">
<path  d="M61.7242 70.6586C61.6839 70.6586 61.6033 70.6586 61.563 70.6586C59.911 70.6586 58.5411 69.2887 58.5814 67.5964C58.5814 65.9445 59.9916 64.4537 61.6436 64.6149C66.3174 64.6149 70.7494 62.9226 74.1742 59.7799C80.4194 54.3002 80.8626 46.4837 79.1703 40.9638C77.4781 35.4439 72.764 29.1987 64.6251 28.1511C63.2955 27.9899 62.2479 26.9827 62.0062 25.6531C60.4348 16.0234 55.1969 9.37533 47.3804 6.95785C39.2415 4.45978 29.8536 6.91756 23.971 13.0821C18.2497 19.0856 16.92 27.4259 20.2239 36.6526C20.788 38.224 19.9822 39.9565 18.4108 40.5206C16.8395 41.0847 15.1069 40.2788 14.5428 38.7075C10.4734 27.3856 12.3268 16.5472 19.6196 8.93213C27.0735 1.15588 38.9192 -1.94656 49.1935 1.23646C58.5814 4.13745 65.2295 11.8734 67.6067 22.5909C75.8262 24.4443 82.3937 30.6492 85.0126 39.2312C87.8733 48.5789 85.2946 58.1682 78.2839 64.2925C73.6504 68.4022 67.8082 70.6586 61.7242 70.6586Z" fill="black"/>
<path d="M17.0836 70.659C17.003 70.659 16.9224 70.659 16.8821 70.659C5.27818 69.8531 0 60.7473 0 52.6487C0 44.5501 5.27818 35.4845 16.8821 34.6384C19.9443 34.6787 22.805 35.2831 25.3836 36.5724C26.8744 37.338 27.4385 39.1511 26.7132 40.6419C25.9477 42.1326 24.1346 42.6967 22.6438 41.9715C20.9515 41.0851 19.0176 40.6821 17.1642 40.6821C9.54907 41.2462 6.08401 47.0885 6.08401 52.6487C6.08401 58.2089 9.54907 64.0512 17.3253 64.6153C18.9773 64.7361 20.2263 66.1866 20.1457 67.8386C19.9846 69.4502 18.6549 70.659 17.0836 70.659Z" fill="black"/>
<path d="M58.3844 29.9239C57.2562 29.9239 56.2087 29.3196 55.6849 28.2317C54.9193 26.7408 55.5237 24.9277 57.0548 24.1621C59.5126 22.9131 62.2927 22.2281 65.0325 22.1879H65.0728C66.7247 22.1879 68.0543 23.5175 68.0946 25.1694C68.1349 26.8214 66.8053 28.2317 65.1131 28.2317C63.2597 28.272 61.4063 28.7152 59.714 29.5613C59.2708 29.8433 58.8276 29.9239 58.3844 29.9239Z" fill="black"/>
<path d="M37.3929 78.1927C36.8692 78.1927 36.3051 78.1121 35.7813 77.9106C34.0086 77.2257 32.8401 75.5737 32.8401 73.68V67.314H31.8328C28.811 67.314 27.7232 65.5412 27.3605 64.8159C27.0382 64.0101 26.4741 61.9955 28.4484 59.7795L38.3196 48.5382C39.5687 47.128 41.543 46.6042 43.3158 47.2891C45.0886 47.9741 46.2571 49.626 46.2571 51.5197V57.8858H47.2643C50.2459 57.8858 51.3741 59.6586 51.7367 60.3839C52.0993 61.1091 52.6634 63.1237 50.6891 65.38L40.8177 76.6213C39.891 77.6286 38.642 78.1927 37.3929 78.1927ZM35.1769 61.23H35.8619C37.5138 61.23 38.8837 62.5999 38.8837 64.2518V69.6106L43.8799 63.9295H43.1949C41.543 63.9295 40.1731 62.5596 40.1731 60.9076V55.5489L35.1769 61.23Z" fill="black"/>
</svg>
