<svg width="87" height="87" viewBox="0 0 87 87" fill="none" xmlns="http://www.w3.org/2000/svg">
<path d="M24.3339 81.4626C24.2046 81.4626 24.0323 81.5488 23.9031 81.5488C15.5457 77.4131 8.73908 70.5635 4.56036 62.206C4.56036 62.0768 4.64652 61.9045 4.64652 61.7752C9.90223 63.3261 15.3303 64.4892 20.7152 65.3939C21.663 70.8219 22.783 76.2069 24.3339 81.4626Z" fill="black"/>
<path d="M81.5888 62.2491C77.3239 70.8219 70.2158 77.7578 61.5568 81.9365C63.1938 76.4654 64.5724 70.9512 65.4771 65.3939C70.9051 64.4892 76.247 63.3261 81.5027 61.7752C81.4596 61.9475 81.5888 62.1199 81.5888 62.2491Z" fill="black"/>
<path d="M81.9335 24.6005C76.5054 22.9634 71.0343 21.628 65.4771 20.6802C64.5724 15.1229 63.2369 9.60876 61.5568 4.22382C70.4743 8.48869 77.6686 15.683 81.9335 24.6005Z" fill="black"/>
<path d="M24.342 4.68962C22.7911 9.94532 21.671 15.2872 20.7664 20.7152C15.2091 21.5768 9.69492 22.9554 4.22382 24.5924C8.40253 15.9334 15.3383 8.82526 23.9112 4.56038C24.0404 4.56038 24.2127 4.68962 24.342 4.68962Z" fill="black"/>
<path d="M58.1217 19.7735C48.1272 18.6535 38.0466 18.6535 28.0522 19.7735C29.1292 13.8716 30.5078 7.96972 32.4463 2.28322C32.5325 1.93858 32.4894 1.6801 32.5325 1.33547C35.9357 0.516955 39.4251 0 43.0869 0C46.7056 0 50.2381 0.516955 53.5983 1.33547C53.6414 1.6801 53.6414 1.93858 53.7276 2.28322C55.6661 8.0128 57.0447 13.8716 58.1217 19.7735Z" fill="black"/>
<path d="M19.7735 58.1217C13.8285 57.0447 7.96972 55.6661 2.28322 53.7275C1.93858 53.6414 1.6801 53.6845 1.33547 53.6414C0.516955 50.2381 0 46.7487 0 43.0869C0 39.4682 0.516955 35.9357 1.33547 32.5756C1.6801 32.5325 1.93858 32.5325 2.28322 32.4463C8.0128 30.5508 13.8285 29.1292 19.7735 28.0522C18.6965 38.0466 18.6965 48.1272 19.7735 58.1217Z" fill="black"/>
<path d="M86.16 43.0869C86.16 46.7487 85.643 50.2381 84.8245 53.6414C84.4799 53.6845 84.2214 53.6414 83.8768 53.7275C78.1472 55.623 72.2884 57.0447 66.3865 58.1217C67.5065 48.1272 67.5065 38.0466 66.3865 28.0522C72.2884 29.1292 78.1903 30.5077 83.8768 32.4463C84.2214 32.5325 84.4799 32.5756 84.8245 32.5756C85.643 35.9788 86.16 39.4682 86.16 43.0869Z" fill="black"/>
<path d="M58.1217 66.3865C57.0447 72.3315 55.6661 78.1903 53.7276 83.8768C53.6414 84.2214 53.6414 84.4799 53.5983 84.8245C50.2381 85.6431 46.7056 86.16 43.0869 86.16C39.4251 86.16 35.9357 85.6431 32.5325 84.8245C32.4894 84.4799 32.5325 84.2214 32.4463 83.8768C30.5508 78.1472 29.1292 72.3315 28.0522 66.3865C33.0494 66.9465 38.0466 67.3342 43.0869 67.3342C48.1272 67.3342 53.1675 66.9465 58.1217 66.3865Z" fill="black"/>
<path d="M59.2917 59.2917C48.5171 60.6513 37.6421 60.6513 26.8673 59.2917C25.5079 48.5171 25.5079 37.6421 26.8673 26.8673C37.6421 25.5079 48.5171 25.5079 59.2917 26.8673C60.6513 37.6421 60.6513 48.5171 59.2917 59.2917Z" fill="black"/>
</svg>
