<svg width="87" height="87" viewBox="0 0 87 87" fill="none" xmlns="http://www.w3.org/2000/svg">
<path d="M61.161 0H25.042C9.35302 0 0 9.35302 0 25.042V61.1179C0 76.8499 9.35302 86.203 25.042 86.203H61.1179C76.8068 86.203 86.1599 76.8499 86.1599 61.161V25.042C86.203 9.35302 76.8499 0 61.161 0ZM28.016 18.8784C32.4554 18.8784 36.119 22.499 36.119 26.9815C36.119 31.4641 32.4985 35.0846 28.016 35.0846C23.5334 35.0846 19.9129 31.3779 19.9129 26.9384C19.9129 22.499 23.5765 18.8784 28.016 18.8784ZM43.1015 73.6173C31.5072 73.6173 22.068 64.1781 22.068 52.5838C22.068 49.5667 24.5247 47.0668 27.5418 47.0668H58.5749C61.592 47.0668 64.0488 49.5236 64.0488 52.5838C64.135 64.1781 54.6958 73.6173 43.1015 73.6173ZM58.187 34.9984C53.7475 34.9984 50.0839 31.3779 50.0839 26.8953C50.0839 22.4128 53.7044 18.7922 58.187 18.7922C62.6695 18.7922 66.2901 22.4128 66.2901 26.8953C66.2901 31.3779 62.6264 34.9984 58.187 34.9984Z" fill="black"/>
</svg>
