<svg width="94" height="103" viewBox="0 0 94 103" fill="none" xmlns="http://www.w3.org/2000/svg">
<path d="M90.16 35.2018V67.6362C90.16 72.9471 87.3149 77.8787 82.7152 80.5815L54.5484 96.8462C49.9488 99.5017 44.2585 99.5017 39.6115 96.8462L11.4448 80.5815C6.84513 77.9261 4 72.9945 4 67.6362V35.2018C4 29.8909 6.84513 24.9591 11.4448 22.2562L39.6115 5.99159C44.2111 3.33614 49.9014 3.33614 54.5484 5.99159L82.7152 22.2562C87.3149 24.9591 90.16 29.8434 90.16 35.2018Z" stroke="black" stroke-width="7.11284" stroke-linecap="round" stroke-linejoin="round"/>
<path d="M47.1036 46.6775C53.2059 46.6775 58.1522 41.7306 58.1522 35.6286C58.1522 29.5266 53.2059 24.5802 47.1036 24.5802C41.0017 24.5802 36.0552 29.5266 36.0552 35.6286C36.0552 41.7306 41.0017 46.6775 47.1036 46.6775Z" stroke="black" stroke-width="7.11284" stroke-linecap="round" stroke-linejoin="round"/>
<path d="M66.0712 73.5166C66.0712 64.9812 57.5832 58.058 47.1037 58.058C36.6241 58.058 28.1361 64.9812 28.1361 73.5166" stroke="black" stroke-width="7.11284" stroke-linecap="round" stroke-linejoin="round"/>
</svg>
