<svg width="87" height="97" viewBox="0 0 87 97" fill="none" xmlns="http://www.w3.org/2000/svg">
<path d="M86.16 44.0591V22.8334C86.16 18.8687 83.1623 14.3721 79.4393 12.8733L52.5082 1.8494C46.4644 -0.616466 39.647 -0.616466 33.6033 1.8494L6.67234 12.8733C2.99772 14.3721 0 18.8687 0 22.8334V44.0591C0 67.7024 17.1644 89.8468 40.614 96.3258C42.2096 96.7609 43.9502 96.7609 45.5458 96.3258C68.9957 89.8468 86.16 67.7024 86.16 44.0591ZM46.7062 52.5204V65.2366C46.7062 67.2189 45.0623 68.8628 43.0799 68.8628C41.0975 68.8628 39.4536 67.2189 39.4536 65.2366V52.5204C34.5703 50.9732 30.9925 46.4283 30.9925 41.0614C30.9925 34.3891 36.4076 28.9739 43.0799 28.9739C49.7522 28.9739 55.1675 34.3891 55.1675 41.0614C55.1675 46.4767 51.5896 50.9732 46.7062 52.5204Z" fill="black"/>
</svg>
